<svg width="56" height="56" viewBox="0 0 56 56" fill="none" xmlns="http://www.w3.org/2000/svg">
<path d="M52.5 18.667C53.1439 18.667 53.6668 19.1891 53.667 19.833V53.667H54.833C55.4769 53.667 55.9997 54.1891 56 54.833C56 55.477 55.477 56 54.833 56H1.16699C0.522992 56 0 55.477 0 54.833C0.000155943 54.1891 0.523088 53.667 1.16699 53.667H2.33301V40.833C2.33322 40.1892 2.85613 39.667 3.5 39.667H10.5C11.1439 39.667 11.6668 40.1891 11.667 40.833V53.667H16.333V29.167C16.333 28.523 16.856 28 17.5 28H24.5C25.144 28 25.667 28.523 25.667 29.167V53.667H30.333V33.833C30.3332 33.1892 30.8561 32.667 31.5 32.667H38.5C39.1439 32.667 39.6668 33.1891 39.667 33.833V53.667H44.333V19.833C44.3332 19.1892 44.8561 18.667 45.5 18.667H52.5ZM4.66699 53.667H9.33301V42H4.66699V53.667ZM18.667 53.667H23.333V30.333H18.667V53.667ZM32.667 53.667H37.333V35H32.667V53.667ZM46.667 53.667H51.333V21H46.667V53.667ZM49 0C51.5737 0 53.667 2.09329 53.667 4.66699C53.6668 7.24056 51.5736 9.33301 49 9.33301C48.1354 9.33301 47.3258 9.09585 46.6309 8.68457L39.0186 16.2969C39.4299 16.9919 39.667 17.8023 39.667 18.667C39.6668 21.2406 37.5736 23.333 35 23.333C32.4264 23.333 30.3332 21.2406 30.333 18.667C30.333 18.4033 30.3553 18.1444 30.3975 17.8926L25.0234 16.3594C24.2118 17.7385 22.7131 18.667 21 18.667C19.9493 18.667 18.979 18.3175 18.1982 17.7295L11.0801 23.4053C11.453 24.0757 11.667 24.8468 11.667 25.667C11.6668 28.2406 9.57361 30.333 7 30.333C4.42639 30.333 2.33316 28.2406 2.33301 25.667C2.33301 23.0933 4.4263 21 7 21C7.90443 21 8.74911 21.2591 9.46484 21.7061L16.7402 15.9043C16.4792 15.3225 16.333 14.678 16.333 14C16.333 11.4263 18.4263 9.33301 21 9.33301C23.5737 9.33301 25.667 11.4263 25.667 14C25.667 14.0385 25.664 14.0769 25.6631 14.1152L31.3672 15.7422C32.2233 14.6808 33.533 14 35 14C35.8641 14 36.6735 14.2367 37.3682 14.6475L44.9814 7.03516C44.5705 6.34043 44.3331 5.53115 44.333 4.66699C44.333 2.09329 46.4263 5.17036e-07 49 0ZM7 23.333C5.712 23.333 4.66699 24.3813 4.66699 25.667C4.66715 26.9525 5.7121 28 7 28C8.2879 28 9.33285 26.9525 9.33301 25.667C9.33301 25.0317 9.07771 24.4546 8.66406 24.0332C8.65481 24.0243 8.64573 24.0151 8.63672 24.0059C8.21543 23.5906 7.63764 23.333 7 23.333ZM35 16.333C33.712 16.333 32.667 17.3813 32.667 18.667C32.6671 19.9525 33.7121 21 35 21C36.2879 21 37.3329 19.9525 37.333 18.667C37.333 17.3814 36.288 16.333 35 16.333ZM21 11.667C19.712 11.667 18.667 12.7143 18.667 14C18.667 14.5442 18.8552 15.0449 19.1689 15.4424C19.1723 15.4464 19.1764 15.45 19.1797 15.4541C19.1883 15.4649 19.1959 15.4763 19.2041 15.4873C19.6322 16.0034 20.2777 16.333 21 16.333C22.288 16.333 23.333 15.2857 23.333 14C23.333 12.7144 22.288 11.667 21 11.667ZM49 2.33301C47.712 2.33301 46.667 3.38129 46.667 4.66699C46.6671 5.3018 46.9228 5.87757 47.3359 6.29883C47.3414 6.30404 47.3472 6.30911 47.3525 6.31445C47.3576 6.31951 47.3622 6.32495 47.3672 6.33008C47.7882 6.7435 48.364 7 49 7C50.2879 7 51.3329 5.95245 51.333 4.66699C51.333 3.3814 50.288 2.33301 49 2.33301Z" fill="#C4FFFE"/>
</svg>
