<svg width="100" height="225" viewBox="0 0 100 225" fill="none" xmlns="http://www.w3.org/2000/svg">
<path d="M0 100C0 44.7717 44.7715 0.000152588 100 0.000152588C155.228 0.000152588 200 44.7717 200 100C200 155.229 155.228 200 100 200C44.7715 200 0 155.229 0 100ZM67 100C67 118.226 81.7746 133 100 133C118.225 133 133 118.226 133 100C133 81.7748 118.225 67.0002 100 67.0002C81.7746 67.0002 67 81.7748 67 100Z" fill="#012F34"/>
<rect x="43" y="0.000152588" width="43" height="43" transform="rotate(90 43 0.000152588)" fill="#C4FFFE"/>
<path d="M0 124.487C0 69.2583 44.7715 24.4867 100 24.4867C155.228 24.4867 200 69.2583 200 124.487C200 179.715 155.228 224.487 100 224.487C44.7715 224.487 0 179.715 0 124.487ZM67 124.487C67 142.712 81.7746 157.487 100 157.487C118.225 157.487 133 142.712 133 124.487C133 106.261 118.225 91.4867 100 91.4867C81.7746 91.4867 67 106.261 67 124.487Z" fill="#FF7F7F"/>
</svg>
