<svg width="100" height="200" viewBox="0 0 100 200" fill="none" xmlns="http://www.w3.org/2000/svg">
<rect x="100" y="100" width="100" height="100" transform="rotate(180 100 100)" fill="#2C6269"/>
<path d="M100 0C155.228 0 200 44.7715 200 100C200 155.228 155.228 200 100 200C44.7715 200 0 155.228 0 100C0 44.7715 44.7715 0 100 0ZM100 67C81.7746 67 67 81.7746 67 100C67 118.225 81.7746 133 100 133C118.225 133 133 118.225 133 100C133 81.7746 118.225 67 100 67Z" fill="#FF7F7F"/>
<path d="M100 44H0V40H100V44ZM100 36H0V32H100V36ZM100 28H0V24H100V28ZM100 20H0V16H100V20ZM100 12H0V8H100V12ZM100 4H0V0H100V4Z" fill="#C4FFFE"/>
</svg>
