<svg width="100" height="200" viewBox="0 0 100 200" fill="none" xmlns="http://www.w3.org/2000/svg">
<rect width="100" height="100" transform="matrix(1 0 0 -1 0 100)" fill="#2C6269"/>
<path d="M0 0C-55.2285 0 -100 44.7715 -100 100C-100 155.228 -55.2285 200 0 200C55.2285 200 100 155.228 100 100C100 44.7715 55.2285 0 0 0ZM0 67C18.2254 67 33 81.7746 33 100C33 118.225 18.2254 133 0 133C-18.2254 133 -33 118.225 -33 100C-33 81.7746 -18.2254 67 0 67Z" fill="#012F34"/>
<path d="M0 100H100V96H0V100ZM0 92H100V88H0V92ZM0 84H100V80H0V84ZM0 76H100V72H0V76ZM0 68H100V64H0V68ZM0 60H100V56H0V60Z" fill="#C4FFFE"/>
<path d="M96 144H100V140H96V144ZM89 144H93V140H89V144ZM82 144H86V140H82V144ZM75 144H79V140H75V144ZM68 144H72V140H68V144ZM61 144H65V140H61V144ZM54 144H58V140H54V144ZM47 144H51V140H47V144ZM96 136H100V132H96V136ZM89 136H93V132H89V136ZM82 136H86V132H82V136ZM75 136H79V132H75V136ZM68 136H72V132H68V136ZM61 136H65V132H61V136ZM54 136H58V132H54V136ZM47 136H51V132H47V136ZM96 128H100V124H96V128ZM89 128H93V124H89V128ZM82 128H86V124H82V128ZM75 128H79V124H75V128ZM68 128H72V124H68V128ZM61 128H65V124H61V128ZM54 128H58V124H54V128ZM47 128H51V124H47V128ZM96 120H100V116H96V120ZM89 120H93V116H89V120ZM82 120H86V116H82V120ZM75 120H79V116H75V120ZM68 120H72V116H68V120ZM61 120H65V116H61V120ZM54 120H58V116H54V120ZM47 120H51V116H47V120ZM96 112H100V108H96V112ZM89 112H93V108H89V112ZM82 112H86V108H82V112ZM75 112H79V108H75V112ZM68 112H72V108H68V112ZM61 112H65V108H61V112ZM54 112H58V108H54V112ZM47 112H51V108H47V112ZM96 104H100V100H96V104ZM89 104H93V100H89V104ZM82 104H86V100H82V104ZM75 104H79V100H75V104ZM68 104H72V100H68V104ZM61 104H65V100H61V104ZM54 104H58V100H54V104ZM47 104H51V100H47V104Z" fill="#FF7F7F"/>
</svg>
